M48
INCH,TZ
T1C0.067
T2C0.120
T3C0.157
%
G90
G05
T1
X28512Y-21654
X29066Y-60921
X31970Y-50083
X32512Y-21654
X32929Y-61957
X34874Y-39245
X35833Y-51119
X36291Y-62858
X36810Y-32020
X37764Y-21654
X38227Y-55632
X38738Y-40280
X40155Y-63893
X40163Y-48407
X40674Y-33055
X41764Y-21654
X42091Y-56667
X42099Y-41181
X44027Y-49442
X44035Y-33956
X44739Y-60230
X45244Y-21654
X45963Y-42217
X46675Y-53005
X47899Y-34991
X48603Y-61265
X48611Y-45779
X49244Y-21654
X50539Y-54040
X50547Y-38554
X52372Y-60645
X52475Y-46815
X52483Y-31328
X52724Y-21654
X54308Y-53420
X54411Y-39589
X56236Y-61680
X56244Y-46194
X56347Y-32364
X56724Y-21654
X58172Y-54455
X58180Y-38969
X60108Y-47229
X60117Y-31743
X60205Y-21654
X61024Y-57257
X62044Y-40004
X62701Y-65451
X62960Y-50032
X63980Y-32779
X64205Y-21654
X64888Y-58292
X64896Y-42806
X66565Y-66486
X66824Y-51067
X66832Y-35581
X68250Y-59193
X68321Y-76494
X68760Y-43842
X69457Y-21654
X70186Y-51968
X70257Y-83720
X70696Y-36616
X72113Y-60228
X72122Y-44742
X72185Y-75459
X73197Y-29134
X73457Y-21654
X74049Y-53003
X74058Y-37517
X74121Y-82685
X75986Y-45778
X76937Y-21654
X76937Y-61417
X76937Y-68898
X77197Y-29134
X77922Y-38552
X80677Y-29134
X80677Y-46457
X80677Y-53937
X80677Y-76378
X80937Y-21654
X80937Y-61417
X80937Y-68898
X84417Y-21654
X84417Y-61417
X84417Y-68898
X84677Y-29134
X84677Y-46457
X84677Y-53937
X84677Y-76378
X87396Y-38525
X88157Y-29134
X88417Y-21654
X88417Y-61417
X88417Y-68898
X89332Y-45750
X91260Y-37489
X91268Y-52976
X91286Y-82705
X91898Y-21654
X92157Y-29134
X93196Y-44715
X93204Y-60201
X93222Y-75480
X94622Y-36589
X95132Y-51940
X95150Y-83741
X95898Y-21654
X96558Y-43814
X97068Y-59166
X97086Y-76515
X98485Y-35553
X98494Y-51039
X98753Y-66458
X100421Y-42779
X100430Y-58265
X101150Y-21654
X101337Y-32751
X102357Y-50004
X102617Y-65423
X103274Y-39977
X104293Y-57230
X105150Y-21654
X105201Y-31716
X105210Y-47202
X107137Y-38941
X107146Y-54427
X108630Y-21654
X108970Y-32336
X109073Y-46167
X109082Y-61653
X110907Y-39562
X111009Y-53392
X112630Y-21654
X112834Y-31301
X112843Y-46787
X112945Y-60618
X114770Y-38526
X114779Y-54013
X116110Y-21654
X116706Y-45752
X116715Y-61238
X117419Y-34964
X118642Y-52977
X119355Y-42189
X120110Y-21654
X120578Y-60203
X121282Y-33928
X121291Y-49414
X123218Y-41154
X123227Y-56640
X123591Y-21654
X124644Y-33028
X125154Y-48379
X125163Y-63865
X126580Y-40253
X127091Y-55605
X127591Y-21654
X128508Y-31992
X129027Y-62830
X129484Y-51091
X130444Y-39218
X132388Y-61929
X132843Y-21654
X133348Y-50056
X136252Y-60894
X136843Y-21654
T2
X30027Y-54413
X32452Y-45362
X60821Y-62094
X69872Y-64519
X95446Y-64491
X104497Y-62066
X127541Y-46761
X129967Y-55812
T3
X30512Y-21654
X30998Y-61439
X33902Y-50601
X35823Y-55966
X36806Y-39763
X38223Y-63375
X38248Y-46915
X38742Y-32537
X39764Y-21654
X40159Y-56150
X42095Y-48924
X44031Y-41699
X45967Y-34473
X46671Y-60748
X47244Y-21654
X48607Y-53522
X50543Y-46297
X52479Y-39072
X54304Y-61163
X54415Y-31846
X54724Y-21654
X56240Y-53937
X58176Y-46712
X59268Y-67889
X60112Y-39486
X62048Y-32261
X62205Y-21654
X62956Y-57775
X64633Y-65968
X64892Y-50549
X66828Y-43324
X68319Y-70314
X68764Y-36098
X70182Y-59711
X70253Y-75977
X71457Y-21654
X72118Y-52485
X72189Y-83202
X74054Y-45260
X75197Y-29134
X75990Y-38035
X78937Y-21654
X78937Y-61417
X78937Y-68898
X82677Y-29134
X82677Y-46457
X82677Y-53937
X82677Y-76378
X86417Y-21654
X86417Y-61417
X86417Y-68898
X89328Y-38007
X90157Y-29134
X91264Y-45232
X93200Y-52458
X93218Y-83223
X93898Y-21654
X95136Y-59683
X95154Y-75998
X96553Y-36071
X96999Y-70287
X98489Y-43296
X100425Y-50522
X100685Y-65941
X102362Y-57747
X103150Y-21654
X103269Y-32234
X105205Y-39459
X106050Y-67862
X107141Y-46684
X109077Y-53910
X110630Y-21654
X110902Y-31819
X111014Y-61135
X112838Y-39044
X114774Y-46269
X116710Y-53495
X118110Y-21654
X118647Y-60720
X119351Y-34446
X121287Y-41671
X123223Y-48897
X125159Y-56122
X125591Y-21654
X126576Y-32510
X127095Y-63348
X128512Y-39735
X131416Y-50574
X133337Y-45208
X134320Y-61412
X134843Y-21654
X135762Y-54259
T0
M30
