M48
INCH,TZ
T1C0.016
T2C0.039
T3C0.040
T4C0.059
T5C0.059
T6C0.118
%
G90
G05
T1
X29134Y-18898
X36614Y-22047
X40748Y-16142
X48228Y-16142
X55709Y-16142
X58661Y-62598
X59843Y-53543
X62992Y-14764
X69094Y-49803
X72244Y-14764
X79724Y-14764
X87205Y-14764
X94685Y-14764
X96654Y-19350
X97047Y-19350
X97441Y-19350
X97835Y-19350
X98228Y-19350
X101575Y-83071
X101575Y-83858
X101575Y-84646
X102362Y-70866
X102362Y-71654
X102362Y-72441
X102362Y-83071
X102362Y-83858
X102362Y-84646
X103150Y-70866
X103150Y-71654
X103150Y-72441
X103150Y-83071
X103150Y-83858
X103150Y-84646
X103937Y-70866
X103937Y-71654
X103937Y-72441
X104646Y-81260
X105315Y-76378
X105315Y-77165
X106102Y-75591
X106102Y-76378
X106102Y-77165
X106890Y-75591
X106890Y-76378
X106890Y-77165
X107087Y-55906
X107480Y-73819
X107677Y-62598
X108071Y-73819
X108071Y-78937
X108661Y-76969
X108661Y-73819
X109252Y-70669
X109252Y-78937
X109646Y-77362
X109843Y-83465
X110630Y-75000
X110827Y-82480
X111024Y-70079
X111024Y-75000
X111024Y-76772
X111417Y-72441
X111417Y-75000
X111417Y-77953
X111614Y-70079
X111614Y-76772
X111811Y-75000
X111811Y-81496
X112205Y-70079
X112205Y-75000
X112205Y-83858
X112305Y-72179
X112598Y-72835
X112795Y-70079
X112795Y-80512
X112992Y-16535
X112992Y-70669
X113189Y-82874
X113386Y-74803
X113976Y-83661
X114173Y-81890
X114567Y-16929
X114567Y-17717
X114961Y-69488
X115354Y-16929
X115354Y-17717
X115354Y-75787
X115354Y-81496
X115748Y-76969
X116142Y-14567
X116142Y-16929
X116142Y-17717
X116339Y-78150
X116535Y-75197
X116535Y-85827
X116929Y-14567
X116929Y-16929
X116929Y-17717
X116929Y-75197
X117126Y-76575
X117126Y-77362
X117126Y-78150
X117520Y-75197
X117717Y-14567
X117717Y-16929
X117717Y-17717
X117913Y-76181
X117913Y-77362
X117913Y-78150
X117927Y-75370
X118110Y-69291
X118110Y-70079
X118110Y-70866
X118504Y-14567
X118504Y-16929
X118504Y-17717
X118504Y-73228
X118898Y-69291
X118898Y-70079
X118898Y-70866
X119094Y-79724
X119291Y-14567
X119291Y-16929
X119291Y-17717
X119685Y-69291
X119685Y-70079
X119685Y-70866
X120079Y-14567
X120079Y-16929
X120079Y-17717
X120079Y-79724
X120866Y-14567
X120866Y-16929
X120866Y-17717
X121063Y-76181
X121063Y-79724
X121260Y-76969
X121260Y-81890
X121260Y-82677
X121260Y-83465
X121654Y-14567
X121654Y-16929
X121654Y-17717
X121850Y-76181
X122047Y-79724
X122047Y-81890
X122047Y-82677
X122047Y-83465
X122441Y-14567
X122441Y-15748
X122441Y-16929
X122441Y-17717
X122835Y-81890
X122835Y-82677
X122835Y-83465
X123032Y-30319
X123228Y-14567
X123228Y-17717
X123420Y-37795
X124016Y-14567
X124016Y-17717
X124606Y-75197
X124606Y-75591
X124803Y-14567
X124803Y-17717
X125591Y-14567
X125591Y-17717
X125622Y-27134
X125984Y-69291
X125984Y-70079
X125984Y-70866
X126378Y-14567
X126378Y-17717
X126772Y-48031
X126772Y-69291
X126772Y-70079
X126772Y-70866
X127165Y-14567
X127165Y-16929
X127165Y-17717
X127559Y-69291
X127559Y-70079
X127559Y-70866
X127953Y-14567
X127953Y-15354
X127953Y-16929
X127953Y-17717
X127953Y-19685
X128735Y-53932
X128740Y-14567
X128740Y-17717
X129528Y-14567
X129528Y-17717
X130315Y-14567
X130315Y-15354
X130315Y-16929
X130315Y-17717
X130709Y-59221
X131102Y-14567
X131102Y-15354
X131102Y-16929
X131102Y-17717
X131102Y-77165
X131102Y-77953
X131102Y-78740
X131496Y-66535
X131890Y-14567
X131890Y-15354
X131890Y-16929
X131890Y-17717
X131890Y-77165
X131890Y-77953
X131890Y-78740
X132677Y-14567
X132677Y-15354
X132677Y-16929
X132677Y-17717
X132677Y-77165
X132677Y-77953
X132677Y-78740
X133465Y-14567
X133465Y-15354
X133465Y-16929
X133465Y-17717
X134252Y-14567
X134252Y-15354
X134252Y-16929
X134252Y-17717
X134252Y-70866
X134252Y-71654
X134252Y-72441
X134252Y-83465
X134252Y-84252
X134252Y-85039
X135039Y-14567
X135039Y-15354
X135039Y-16929
X135039Y-17717
X135039Y-70866
X135039Y-71654
X135039Y-72441
X135039Y-83465
X135039Y-84252
X135039Y-85039
X135827Y-14567
X135827Y-15354
X135827Y-70866
X135827Y-71654
X135827Y-72441
X135827Y-83465
X135827Y-84252
X135827Y-85039
X136614Y-14567
X138583Y-17323
X138976Y-14567
T2
X29012Y-23654
X29031Y-62983
X31929Y-63759
X31935Y-52145
X32012Y-23654
X34833Y-52921
X34839Y-41306
X36256Y-64919
X36775Y-34081
X37737Y-42083
X38192Y-57693
X38264Y-23654
X39154Y-65695
X39673Y-34857
X40129Y-50468
X41090Y-58470
X41264Y-23654
X42065Y-43243
X43026Y-51244
X44001Y-36017
X44705Y-62291
X44962Y-44019
X45744Y-23654
X46641Y-55066
X46898Y-36794
X47602Y-63068
X48577Y-47841
X48744Y-23654
X49538Y-55842
X50513Y-40615
X51474Y-48617
X52338Y-62706
X52449Y-33390
X53224Y-23654
X53411Y-41392
X54274Y-55481
X55235Y-63483
X55347Y-34166
X56210Y-48255
X56224Y-23654
X57171Y-56257
X58146Y-41030
X59108Y-49032
X60082Y-33805
X60705Y-23654
X60990Y-59318
X61044Y-41806
X62666Y-67512
X62926Y-52093
X62980Y-34581
X63705Y-23654
X63887Y-60095
X64862Y-44868
X65564Y-68288
X65823Y-52869
X66798Y-37642
X67759Y-45644
X68215Y-61254
X69322Y-78297
X69696Y-38419
X69957Y-23654
X70151Y-54029
X71113Y-62031
X71258Y-85522
X72087Y-46804
X72220Y-77520
X72957Y-23654
X73049Y-54805
X73697Y-31134
X74023Y-39578
X74156Y-84746
X74985Y-47580
X76697Y-31134
X76921Y-40355
X77437Y-23654
X77437Y-63417
X77437Y-70898
X80437Y-23654
X80437Y-63417
X80437Y-70898
X81177Y-31134
X81177Y-48457
X81177Y-55937
X81177Y-78378
X84177Y-31134
X84177Y-48457
X84177Y-55937
X84177Y-78378
X84917Y-23654
X84917Y-63417
X84917Y-70898
X87917Y-23654
X87917Y-63417
X87917Y-70898
X88397Y-40327
X88657Y-31134
X90333Y-47553
X91251Y-84767
X91294Y-39551
X91657Y-31134
X92269Y-54778
X92398Y-23654
X93187Y-77541
X93231Y-46776
X94149Y-85543
X94205Y-62003
X95167Y-54002
X95398Y-23654
X95622Y-38391
X96085Y-78318
X97103Y-61227
X97558Y-45617
X98520Y-37615
X99494Y-52842
X99754Y-68261
X100456Y-44840
X101430Y-60067
X101650Y-23654
X102338Y-34554
X102392Y-52065
X102651Y-67484
X104274Y-41779
X104328Y-59291
X104650Y-23654
X105236Y-33777
X106210Y-49004
X107172Y-41003
X108146Y-56230
X109108Y-48228
X109130Y-23654
X109971Y-34139
X110082Y-63455
X111044Y-55453
X111907Y-41364
X112130Y-23654
X112869Y-33362
X112980Y-62679
X113843Y-48590
X114805Y-40588
X115779Y-55815
X116610Y-23654
X116741Y-47813
X117715Y-63040
X118419Y-36766
X118677Y-55039
X119610Y-23654
X120355Y-43992
X120613Y-62264
X121317Y-35990
X122291Y-51217
X123253Y-43215
X124091Y-23654
X124227Y-58442
X125189Y-50440
X125645Y-34830
X126163Y-65668
X127091Y-23654
X127125Y-57666
X127581Y-42055
X128542Y-34054
X129061Y-64891
X130479Y-41279
X130485Y-52894
X133343Y-23654
X133383Y-52117
X133389Y-63732
X136287Y-62955
X136343Y-23654
T3
X133465Y-28346
X133465Y-29346
X133465Y-30346
X134465Y-28346
X134465Y-29346
X134465Y-30346
T4
X29012Y-20654
X29807Y-60085
X31512Y-19654
X32481Y-59766
X32712Y-49247
X35385Y-48928
X35616Y-38409
X37033Y-62021
X37552Y-31183
X38264Y-20654
X38289Y-38090
X38969Y-54796
X39707Y-61702
X40225Y-30864
X40764Y-19654
X40905Y-47570
X41643Y-54477
X42841Y-40345
X43579Y-47251
X44777Y-33119
X45481Y-59394
X45515Y-40026
X45744Y-20654
X47417Y-52168
X47451Y-32800
X48155Y-59075
X48244Y-19654
X49353Y-44943
X50091Y-51849
X51289Y-37717
X52027Y-44624
X53114Y-59809
X53224Y-20654
X53225Y-30492
X53963Y-37398
X55050Y-52583
X55724Y-19654
X55788Y-59490
X55899Y-30173
X56986Y-45358
X57724Y-52264
X58922Y-38132
X59660Y-45039
X60705Y-20654
X60858Y-30907
X61596Y-37813
X61766Y-56421
X63205Y-19654
X63443Y-64614
X63532Y-30588
X63702Y-49195
X64440Y-56102
X65638Y-41970
X66116Y-64295
X66376Y-48876
X67574Y-34744
X68312Y-41651
X68545Y-75399
X68992Y-58357
X69957Y-20654
X70248Y-34425
X70481Y-82624
X70701Y-73786
X70928Y-51131
X71665Y-58038
X72457Y-19654
X72637Y-81011
X72864Y-43906
X73601Y-50812
X73697Y-28134
X74800Y-36680
X75537Y-43587
X76197Y-27134
X77437Y-20654
X77437Y-60417
X77437Y-67898
X77473Y-36361
X79937Y-19654
X79937Y-59417
X79937Y-66898
X81177Y-28134
X81177Y-45457
X81177Y-52937
X81177Y-75378
X83677Y-27134
X83677Y-44457
X83677Y-51937
X83677Y-74378
X84917Y-20654
X84917Y-60417
X84917Y-67898
X87417Y-19654
X87417Y-59417
X87417Y-66898
X87620Y-37429
X88657Y-28134
X89556Y-44655
X89776Y-35816
X91157Y-27134
X91492Y-51880
X91712Y-43042
X92028Y-81869
X92398Y-20654
X93428Y-59106
X93648Y-50267
X93964Y-74643
X94701Y-81550
X94846Y-35493
X94898Y-19654
X95584Y-57493
X96637Y-74324
X96782Y-42719
X97002Y-33880
X98718Y-49944
X98938Y-41106
X98977Y-65363
X100654Y-57170
X100874Y-48331
X101133Y-63750
X101562Y-31656
X101650Y-20654
X102810Y-55557
X103498Y-38881
X103718Y-30043
X104150Y-19654
X105434Y-46107
X105654Y-37268
X107370Y-53332
X107590Y-44494
X109130Y-20654
X109195Y-31241
X109306Y-60558
X109526Y-51719
X111131Y-38466
X111351Y-29628
X111462Y-58945
X111630Y-19654
X113067Y-45692
X113287Y-36853
X115003Y-52917
X115223Y-44079
X116610Y-20654
X116939Y-60143
X117159Y-51304
X117643Y-33868
X119095Y-58530
X119110Y-19654
X119579Y-41094
X119799Y-32255
X121515Y-48319
X121735Y-39481
X123451Y-55545
X123671Y-46706
X124091Y-20654
X124868Y-31932
X125387Y-62770
X125607Y-53932
X126591Y-19654
X126804Y-39158
X127024Y-30319
X127543Y-61157
X128960Y-37545
X129708Y-49996
X131864Y-48383
X132612Y-60834
X133343Y-20654
X134768Y-59221
X135843Y-19654
T5
X30315Y-70472
X31496Y-15748
X31496Y-27559
X31496Y-29528
X31496Y-31496
X31496Y-33465
X31496Y-35433
X31496Y-37402
X37795Y-70472
X50000Y-70472
X62992Y-82677
X64173Y-70472
X65748Y-16732
X72047Y-70472
X74409Y-70472
X75000Y-16732
X82480Y-16732
X87008Y-76772
X89961Y-16732
X97441Y-16732
X100787Y-76772
X105512Y-80118
X107087Y-80118
X107480Y-15748
X108661Y-80118
X109449Y-66142
X110236Y-15748
X110236Y-80118
X116142Y-66142
X121260Y-66142
X123228Y-66142
X129134Y-16142
T6
X27559Y-15748
X27559Y-86614
X137795Y-15748
X137795Y-86614
T0
M30
